<mxfile host="app.diagrams.net" modified="2022-04-29T10:07:00.545Z" agent="5.0 (Windows NT 10.0; Win64; x64) AppleWebKit/537.36 (KHTML, like Gecko) Chrome/100.0.4896.127 Safari/537.36 Edg/100.0.1185.50" etag="rCsDWj9cT7WR7q3vk30D" version="17.4.6" type="github">
  <diagram id="BCdesBuCIfJqMFpjHHr-" name="Page-1">
    <mxGraphModel dx="1038" dy="579" grid="1" gridSize="10" guides="1" tooltips="1" connect="1" arrows="1" fold="1" page="1" pageScale="1" pageWidth="850" pageHeight="1100" math="0" shadow="0">
      <root>
        <mxCell id="0" />
        <mxCell id="1" parent="0" />
        <mxCell id="pVDx9cTC9VevvbKP6h75-5" value="" style="edgeStyle=orthogonalEdgeStyle;rounded=0;orthogonalLoop=1;jettySize=auto;html=1;" edge="1" parent="1" source="pVDx9cTC9VevvbKP6h75-1" target="pVDx9cTC9VevvbKP6h75-4">
          <mxGeometry relative="1" as="geometry" />
        </mxCell>
        <mxCell id="pVDx9cTC9VevvbKP6h75-1" value="start" style="rounded=1;whiteSpace=wrap;html=1;" vertex="1" parent="1">
          <mxGeometry x="80" y="30" width="90" height="20" as="geometry" />
        </mxCell>
        <mxCell id="pVDx9cTC9VevvbKP6h75-7" value="" style="edgeStyle=orthogonalEdgeStyle;rounded=0;orthogonalLoop=1;jettySize=auto;html=1;" edge="1" parent="1" source="pVDx9cTC9VevvbKP6h75-4" target="pVDx9cTC9VevvbKP6h75-6">
          <mxGeometry relative="1" as="geometry" />
        </mxCell>
        <mxCell id="pVDx9cTC9VevvbKP6h75-4" value="get the agent id and initialize the position&lt;br&gt;array" style="rounded=0;whiteSpace=wrap;html=1;" vertex="1" parent="1">
          <mxGeometry x="65" y="90" width="120" height="60" as="geometry" />
        </mxCell>
        <mxCell id="pVDx9cTC9VevvbKP6h75-10" value="" style="edgeStyle=orthogonalEdgeStyle;rounded=0;orthogonalLoop=1;jettySize=auto;html=1;entryX=0;entryY=0.5;entryDx=0;entryDy=0;" edge="1" parent="1" source="pVDx9cTC9VevvbKP6h75-6" target="pVDx9cTC9VevvbKP6h75-9">
          <mxGeometry relative="1" as="geometry" />
        </mxCell>
        <mxCell id="pVDx9cTC9VevvbKP6h75-6" value="IF pop is not rest agent" style="rhombus;whiteSpace=wrap;html=1;rounded=0;" vertex="1" parent="1">
          <mxGeometry x="85" y="280" width="80" height="80" as="geometry" />
        </mxCell>
        <mxCell id="pVDx9cTC9VevvbKP6h75-12" value="" style="edgeStyle=orthogonalEdgeStyle;rounded=0;orthogonalLoop=1;jettySize=auto;html=1;" edge="1" parent="1" source="pVDx9cTC9VevvbKP6h75-9" target="pVDx9cTC9VevvbKP6h75-11">
          <mxGeometry relative="1" as="geometry" />
        </mxCell>
        <mxCell id="pVDx9cTC9VevvbKP6h75-9" value="calculate the goal distance vector" style="whiteSpace=wrap;html=1;rounded=0;" vertex="1" parent="1">
          <mxGeometry x="240" y="30" width="120" height="60" as="geometry" />
        </mxCell>
        <mxCell id="pVDx9cTC9VevvbKP6h75-16" value="yes" style="edgeStyle=orthogonalEdgeStyle;rounded=0;orthogonalLoop=1;jettySize=auto;html=1;" edge="1" parent="1" source="pVDx9cTC9VevvbKP6h75-11" target="pVDx9cTC9VevvbKP6h75-15">
          <mxGeometry relative="1" as="geometry" />
        </mxCell>
        <mxCell id="pVDx9cTC9VevvbKP6h75-18" value="NO" style="edgeStyle=orthogonalEdgeStyle;rounded=0;orthogonalLoop=1;jettySize=auto;html=1;" edge="1" parent="1" source="pVDx9cTC9VevvbKP6h75-11" target="pVDx9cTC9VevvbKP6h75-17">
          <mxGeometry relative="1" as="geometry" />
        </mxCell>
        <mxCell id="pVDx9cTC9VevvbKP6h75-11" value="IF target distance &amp;gt; 0.5" style="rhombus;whiteSpace=wrap;html=1;rounded=0;" vertex="1" parent="1">
          <mxGeometry x="260" y="130" width="80" height="80" as="geometry" />
        </mxCell>
        <mxCell id="pVDx9cTC9VevvbKP6h75-15" value="goal vector normalize" style="rounded=1;whiteSpace=wrap;html=1;fillColor=#ffcc99;strokeColor=#36393d;" vertex="1" parent="1">
          <mxGeometry x="400" y="140" width="120" height="60" as="geometry" />
        </mxCell>
        <mxCell id="pVDx9cTC9VevvbKP6h75-20" value="" style="edgeStyle=orthogonalEdgeStyle;rounded=0;orthogonalLoop=1;jettySize=auto;html=1;" edge="1" parent="1" source="pVDx9cTC9VevvbKP6h75-17" target="pVDx9cTC9VevvbKP6h75-19">
          <mxGeometry relative="1" as="geometry" />
        </mxCell>
        <mxCell id="pVDx9cTC9VevvbKP6h75-17" value="ELSE" style="rhombus;whiteSpace=wrap;html=1;rounded=0;" vertex="1" parent="1">
          <mxGeometry x="260" y="260" width="80" height="80" as="geometry" />
        </mxCell>
        <mxCell id="pVDx9cTC9VevvbKP6h75-22" value="yes" style="edgeStyle=orthogonalEdgeStyle;rounded=0;orthogonalLoop=1;jettySize=auto;html=1;" edge="1" parent="1" source="pVDx9cTC9VevvbKP6h75-19" target="pVDx9cTC9VevvbKP6h75-21">
          <mxGeometry relative="1" as="geometry" />
        </mxCell>
        <mxCell id="pVDx9cTC9VevvbKP6h75-25" value="no" style="edgeStyle=orthogonalEdgeStyle;rounded=0;orthogonalLoop=1;jettySize=auto;html=1;" edge="1" parent="1" source="pVDx9cTC9VevvbKP6h75-19" target="pVDx9cTC9VevvbKP6h75-24">
          <mxGeometry relative="1" as="geometry">
            <Array as="points">
              <mxPoint x="300" y="480" />
              <mxPoint x="300" y="480" />
            </Array>
          </mxGeometry>
        </mxCell>
        <mxCell id="pVDx9cTC9VevvbKP6h75-19" value="IF current pop is leader" style="rhombus;whiteSpace=wrap;html=1;rounded=0;" vertex="1" parent="1">
          <mxGeometry x="260" y="380" width="80" height="80" as="geometry" />
        </mxCell>
        <mxCell id="pVDx9cTC9VevvbKP6h75-21" value="call destination reach function for grp" style="rounded=1;whiteSpace=wrap;html=1;fillColor=#f8cecc;gradientColor=#ea6b66;strokeColor=#b85450;" vertex="1" parent="1">
          <mxGeometry x="400" y="390" width="120" height="60" as="geometry" />
        </mxCell>
        <mxCell id="pVDx9cTC9VevvbKP6h75-27" value="yes" style="edgeStyle=orthogonalEdgeStyle;rounded=0;orthogonalLoop=1;jettySize=auto;html=1;fontSize=9;" edge="1" parent="1" source="pVDx9cTC9VevvbKP6h75-24" target="pVDx9cTC9VevvbKP6h75-26">
          <mxGeometry relative="1" as="geometry" />
        </mxCell>
        <mxCell id="pVDx9cTC9VevvbKP6h75-24" value="&lt;font style=&quot;font-size: 9px&quot;&gt;ELSE IF pop is child and not grp mode&lt;/font&gt;" style="rhombus;whiteSpace=wrap;html=1;rounded=0;" vertex="1" parent="1">
          <mxGeometry x="260" y="500" width="80" height="80" as="geometry" />
        </mxCell>
        <mxCell id="pVDx9cTC9VevvbKP6h75-29" style="edgeStyle=orthogonalEdgeStyle;rounded=0;orthogonalLoop=1;jettySize=auto;html=1;entryX=0.5;entryY=0;entryDx=0;entryDy=0;fontSize=9;" edge="1" parent="1" source="pVDx9cTC9VevvbKP6h75-26" target="pVDx9cTC9VevvbKP6h75-28">
          <mxGeometry relative="1" as="geometry" />
        </mxCell>
        <mxCell id="pVDx9cTC9VevvbKP6h75-26" value="call destination reach function for individually" style="rounded=1;whiteSpace=wrap;html=1;fillColor=#f8cecc;gradientColor=#ea6b66;strokeColor=#b85450;" vertex="1" parent="1">
          <mxGeometry x="400" y="510" width="120" height="60" as="geometry" />
        </mxCell>
        <mxCell id="pVDx9cTC9VevvbKP6h75-31" value="" style="edgeStyle=orthogonalEdgeStyle;rounded=0;orthogonalLoop=1;jettySize=auto;html=1;fontSize=9;" edge="1" parent="1" source="pVDx9cTC9VevvbKP6h75-28" target="pVDx9cTC9VevvbKP6h75-30">
          <mxGeometry relative="1" as="geometry" />
        </mxCell>
        <mxCell id="pVDx9cTC9VevvbKP6h75-28" value="call&amp;nbsp;setAgentPref&lt;br&gt;Velocity" style="rounded=1;whiteSpace=wrap;html=1;fillColor=#ffcc99;strokeColor=#36393d;" vertex="1" parent="1">
          <mxGeometry x="580" y="30" width="120" height="60" as="geometry" />
        </mxCell>
        <mxCell id="pVDx9cTC9VevvbKP6h75-33" value="" style="edgeStyle=orthogonalEdgeStyle;rounded=0;orthogonalLoop=1;jettySize=auto;html=1;fontSize=9;" edge="1" parent="1" source="pVDx9cTC9VevvbKP6h75-30" target="pVDx9cTC9VevvbKP6h75-32">
          <mxGeometry relative="1" as="geometry" />
        </mxCell>
        <mxCell id="pVDx9cTC9VevvbKP6h75-30" value="call&amp;nbsp;setAgentPosition with y as 0" style="rounded=1;whiteSpace=wrap;html=1;fillColor=#ffcc99;strokeColor=#36393d;" vertex="1" parent="1">
          <mxGeometry x="580" y="140" width="120" height="60" as="geometry" />
        </mxCell>
        <mxCell id="pVDx9cTC9VevvbKP6h75-35" value="yes" style="edgeStyle=orthogonalEdgeStyle;rounded=0;orthogonalLoop=1;jettySize=auto;html=1;fontSize=12;" edge="1" parent="1" source="pVDx9cTC9VevvbKP6h75-32" target="pVDx9cTC9VevvbKP6h75-34">
          <mxGeometry relative="1" as="geometry" />
        </mxCell>
        <mxCell id="pVDx9cTC9VevvbKP6h75-32" value="IF player zone not undefined" style="rhombus;whiteSpace=wrap;html=1;fontSize=9;" vertex="1" parent="1">
          <mxGeometry x="600" y="240" width="80" height="80" as="geometry" />
        </mxCell>
        <mxCell id="pVDx9cTC9VevvbKP6h75-37" value="" style="edgeStyle=orthogonalEdgeStyle;rounded=0;orthogonalLoop=1;jettySize=auto;html=1;fontSize=12;" edge="1" parent="1" source="pVDx9cTC9VevvbKP6h75-34" target="pVDx9cTC9VevvbKP6h75-36">
          <mxGeometry relative="1" as="geometry" />
        </mxCell>
        <mxCell id="pVDx9cTC9VevvbKP6h75-34" value="call polygon lookup search for pop" style="rounded=1;whiteSpace=wrap;html=1;fillColor=#ffcc99;strokeColor=#36393d;" vertex="1" parent="1">
          <mxGeometry x="580" y="360" width="120" height="60" as="geometry" />
        </mxCell>
        <mxCell id="pVDx9cTC9VevvbKP6h75-39" value="" style="edgeStyle=orthogonalEdgeStyle;rounded=0;orthogonalLoop=1;jettySize=auto;html=1;fontSize=12;" edge="1" parent="1" source="pVDx9cTC9VevvbKP6h75-36" target="pVDx9cTC9VevvbKP6h75-38">
          <mxGeometry relative="1" as="geometry" />
        </mxCell>
        <mxCell id="pVDx9cTC9VevvbKP6h75-36" value="IF pop in player zone" style="rhombus;whiteSpace=wrap;html=1;fontSize=12;" vertex="1" parent="1">
          <mxGeometry x="600" y="450" width="80" height="80" as="geometry" />
        </mxCell>
        <mxCell id="pVDx9cTC9VevvbKP6h75-41" value="" style="edgeStyle=orthogonalEdgeStyle;rounded=0;orthogonalLoop=1;jettySize=auto;html=1;fontSize=12;entryX=0.5;entryY=0;entryDx=0;entryDy=0;" edge="1" parent="1" source="pVDx9cTC9VevvbKP6h75-38" target="pVDx9cTC9VevvbKP6h75-40">
          <mxGeometry relative="1" as="geometry" />
        </mxCell>
        <mxCell id="pVDx9cTC9VevvbKP6h75-38" value="set the pop player side and zone and push into array" style="whiteSpace=wrap;html=1;" vertex="1" parent="1">
          <mxGeometry x="580" y="570" width="120" height="60" as="geometry" />
        </mxCell>
        <mxCell id="pVDx9cTC9VevvbKP6h75-43" value="" style="edgeStyle=orthogonalEdgeStyle;rounded=0;orthogonalLoop=1;jettySize=auto;html=1;fontSize=12;" edge="1" parent="1" source="pVDx9cTC9VevvbKP6h75-40" target="pVDx9cTC9VevvbKP6h75-42">
          <mxGeometry relative="1" as="geometry" />
        </mxCell>
        <mxCell id="pVDx9cTC9VevvbKP6h75-40" value="IF pop is leader and not converted" style="rhombus;whiteSpace=wrap;html=1;" vertex="1" parent="1">
          <mxGeometry x="760" y="40" width="80" height="80" as="geometry" />
        </mxCell>
        <mxCell id="pVDx9cTC9VevvbKP6h75-45" value="" style="edgeStyle=orthogonalEdgeStyle;rounded=0;orthogonalLoop=1;jettySize=auto;html=1;fontSize=12;" edge="1" parent="1" source="pVDx9cTC9VevvbKP6h75-42" target="pVDx9cTC9VevvbKP6h75-44">
          <mxGeometry relative="1" as="geometry" />
        </mxCell>
        <mxCell id="pVDx9cTC9VevvbKP6h75-42" value="call identify target agent" style="rounded=1;whiteSpace=wrap;html=1;fillColor=#f8cecc;gradientColor=#ea6b66;strokeColor=#b85450;" vertex="1" parent="1">
          <mxGeometry x="750" y="160" width="120" height="60" as="geometry" />
        </mxCell>
        <mxCell id="pVDx9cTC9VevvbKP6h75-47" value="" style="edgeStyle=orthogonalEdgeStyle;rounded=0;orthogonalLoop=1;jettySize=auto;html=1;fontSize=12;" edge="1" parent="1" source="pVDx9cTC9VevvbKP6h75-44" target="pVDx9cTC9VevvbKP6h75-46">
          <mxGeometry relative="1" as="geometry" />
        </mxCell>
        <mxCell id="pVDx9cTC9VevvbKP6h75-44" value="IF target is not empty" style="rhombus;whiteSpace=wrap;html=1;fontSize=12;" vertex="1" parent="1">
          <mxGeometry x="770" y="250" width="80" height="80" as="geometry" />
        </mxCell>
        <mxCell id="pVDx9cTC9VevvbKP6h75-49" value="" style="edgeStyle=orthogonalEdgeStyle;rounded=0;orthogonalLoop=1;jettySize=auto;html=1;fontSize=12;" edge="1" parent="1" source="pVDx9cTC9VevvbKP6h75-46" target="pVDx9cTC9VevvbKP6h75-48">
          <mxGeometry relative="1" as="geometry" />
        </mxCell>
        <mxCell id="pVDx9cTC9VevvbKP6h75-46" value="call&amp;nbsp;setTarget&lt;br&gt;CardPosition&lt;span style=&quot;color: rgba(0 , 0 , 0 , 0) ; font-family: monospace ; font-size: 0px&quot;&gt;%3CmxGraphModel%3E%3Croot%3E%3CmxCell%20id%3D%220%22%2F%3E%3CmxCell%20id%3D%221%22%20parent%3D%220%22%2F%3E%3CmxCell%20id%3D%222%22%20value%3D%22call%20identify%20target%20agent%22%20style%3D%22rounded%3D1%3BwhiteSpace%3Dwrap%3Bhtml%3D1%3BfillColor%3D%23f8cecc%3BgradientColor%3D%23ea6b66%3BstrokeColor%3D%23b85450%3B%22%20vertex%3D%221%22%20parent%3D%221%22%3E%3CmxGeometry%20x%3D%22750%22%20y%3D%22160%22%20width%3D%22120%22%20height%3D%2260%22%20as%3D%22geometry%22%2F%3E%3C%2FmxCell%3E%3C%2Froot%3E%3C%2FmxGraphModel%3E&lt;/span&gt;" style="rounded=1;whiteSpace=wrap;html=1;fillColor=#f8cecc;gradientColor=#ea6b66;strokeColor=#b85450;" vertex="1" parent="1">
          <mxGeometry x="750" y="360" width="120" height="60" as="geometry" />
        </mxCell>
        <mxCell id="pVDx9cTC9VevvbKP6h75-51" value="" style="edgeStyle=orthogonalEdgeStyle;rounded=0;orthogonalLoop=1;jettySize=auto;html=1;fontSize=12;" edge="1" parent="1" source="pVDx9cTC9VevvbKP6h75-48" target="pVDx9cTC9VevvbKP6h75-50">
          <mxGeometry relative="1" as="geometry" />
        </mxCell>
        <mxCell id="pVDx9cTC9VevvbKP6h75-48" value="IF card moved away" style="rhombus;whiteSpace=wrap;html=1;fontSize=12;" vertex="1" parent="1">
          <mxGeometry x="770" y="450" width="80" height="80" as="geometry" />
        </mxCell>
        <mxCell id="pVDx9cTC9VevvbKP6h75-53" style="edgeStyle=orthogonalEdgeStyle;rounded=0;orthogonalLoop=1;jettySize=auto;html=1;entryX=0.5;entryY=0;entryDx=0;entryDy=0;fontSize=12;" edge="1" parent="1" source="pVDx9cTC9VevvbKP6h75-50" target="pVDx9cTC9VevvbKP6h75-52">
          <mxGeometry relative="1" as="geometry" />
        </mxCell>
        <mxCell id="pVDx9cTC9VevvbKP6h75-50" value="call reSetTarget&amp;nbsp;&lt;span style=&quot;color: rgba(0 , 0 , 0 , 0) ; font-family: monospace ; font-size: 0px&quot;&gt;%3CmxGraphModel%3E%3Croot%3E%3CmxCell%20id%3D%220%22%2F%3E%3CmxCell%20id%3D%221%22%20parent%3D%220%22%2F%3E%3CmxCell%20id%3D%222%22%20value%3D%22call%26amp%3Bnbsp%3BsetTarget%26lt%3Bbr%26gt%3BCardPosition%26lt%3Bspan%20style%3D%26quot%3Bcolor%3A%20rgba(0%20%2C%200%20%2C%200%20%2C%200)%20%3B%20font-family%3A%20monospace%20%3B%20font-size%3A%200px%26quot%3B%26gt%3B%253CmxGraphModel%253E%253Croot%253E%253CmxCell%2520id%253D%25220%2522%252F%253E%253CmxCell%2520id%253D%25221%2522%2520parent%253D%25220%2522%252F%253E%253CmxCell%2520id%253D%25222%2522%2520value%253D%2522call%2520identify%2520target%2520agent%2522%2520style%253D%2522rounded%253D1%253BwhiteSpace%253Dwrap%253Bhtml%253D1%253BfillColor%253D%2523f8cecc%253BgradientColor%253D%2523ea6b66%253BstrokeColor%253D%2523b85450%253B%2522%2520vertex%253D%25221%2522%2520parent%253D%25221%2522%253E%253CmxGeometry%2520x%253D%2522750%2522%2520y%253D%2522160%2522%2520width%253D%2522120%2522%2520height%253D%252260%2522%2520as%253D%2522geometry%2522%252F%253E%253C%252FmxCell%253E%253C%252Froot%253E%253C%252FmxGraphModel%253E%26lt%3B%2Fspan%26gt%3B%22%20style%3D%22rounded%3D1%3BwhiteSpace%3Dwrap%3Bhtml%3D1%3BfillColor%3D%23f8cecc%3BgradientColor%3D%23ea6b66%3BstrokeColor%3D%23b85450%3B%22%20vertex%3D%221%22%20parent%3D%221%22%3E%3CmxGeometry%20x%3D%22750%22%20y%3D%22360%22%20width%3D%22120%22%20height%3D%2260%22%20as%3D%22geometry%22%2F%3E%3C%2FmxCell%3E%3C%2Froot%3E%3C%2FmxGraphModel%3E&lt;/span&gt;&lt;span style=&quot;color: rgba(0 , 0 , 0 , 0) ; font-family: monospace ; font-size: 0px&quot;&gt;%3CmxGraphModel%3E%3Croot%3E%3CmxCell%20id%3D%220%22%2F%3E%3CmxCell%20id%3D%221%22%20parent%3D%220%22%2F%3E%3CmxCell%20id%3D%222%22%20value%3D%22call%26amp%3Bnbsp%3BsetTarget%26lt%3Bbr%26gt%3BCardPosition%26lt%3Bspan%20style%3D%26quot%3Bcolor%3A%20rgba(0%20%2C%200%20%2C%200%20%2C%200)%20%3B%20font-family%3A%20monospace%20%3B%20font-size%3A%200px%26quot%3B%26gt%3B%253CmxGraphModel%253E%253Croot%253E%253CmxCell%2520id%253D%25220%2522%252F%253E%253CmxCell%2520id%253D%25221%2522%2520parent%253D%25220%2522%252F%253E%253CmxCell%2520id%253D%25222%2522%2520value%253D%2522call%2520identify%2520target%2520agent%2522%2520style%253D%2522rounded%253D1%253BwhiteSpace%253Dwrap%253Bhtml%253D1%253BfillColor%253D%2523f8cecc%253BgradientColor%253D%2523ea6b66%253BstrokeColor%253D%2523b85450%253B%2522%2520vertex%253D%25221%2522%2520parent%253D%25221%2522%253E%253CmxGeometry%2520x%253D%2522750%2522%2520y%253D%2522160%2522%2520width%253D%2522120%2522%2520height%253D%252260%2522%2520as%253D%2522geometry%2522%252F%253E%253C%252FmxCell%253E%253C%252Froot%253E%253C%252FmxGraphModel%253E%26lt%3B%2Fspan%26gt%3B%22%20style%3D%22rounded%3D1%3BwhiteSpace%3Dwrap%3Bhtml%3D1%3BfillColor%3D%23f8cecc%3BgradientColor%3D%23ea6b66%3BstrokeColor%3D%23b85450%3B%22%20vertex%3D%221%22%20parent%3D%221%22%3E%3CmxGeometry%20x%3D%22750%22%20y%3D%22360%22%20width%3D%22120%22%20height%3D%2260%22%20as%3D%22geometry%22%2F%3E%3C%2FmxCell%3E%3C%2Froot%3E%3C%2FmxGraphModel%3E&lt;/span&gt;" style="rounded=1;whiteSpace=wrap;html=1;fillColor=#f8cecc;gradientColor=#ea6b66;strokeColor=#b85450;" vertex="1" parent="1">
          <mxGeometry x="750" y="560" width="120" height="60" as="geometry" />
        </mxCell>
        <mxCell id="pVDx9cTC9VevvbKP6h75-55" value="" style="edgeStyle=orthogonalEdgeStyle;rounded=0;orthogonalLoop=1;jettySize=auto;html=1;fontSize=12;" edge="1" parent="1" source="pVDx9cTC9VevvbKP6h75-52" target="pVDx9cTC9VevvbKP6h75-54">
          <mxGeometry relative="1" as="geometry" />
        </mxCell>
        <mxCell id="pVDx9cTC9VevvbKP6h75-52" value="set the pop status as 0(neutral)" style="rounded=0;whiteSpace=wrap;html=1;fontSize=12;" vertex="1" parent="1">
          <mxGeometry x="910" y="40" width="120" height="60" as="geometry" />
        </mxCell>
        <mxCell id="pVDx9cTC9VevvbKP6h75-57" value="yes" style="edgeStyle=orthogonalEdgeStyle;rounded=0;orthogonalLoop=1;jettySize=auto;html=1;fontSize=12;" edge="1" parent="1" source="pVDx9cTC9VevvbKP6h75-54" target="pVDx9cTC9VevvbKP6h75-56">
          <mxGeometry relative="1" as="geometry" />
        </mxCell>
        <mxCell id="pVDx9cTC9VevvbKP6h75-59" value="no" style="edgeStyle=orthogonalEdgeStyle;rounded=0;orthogonalLoop=1;jettySize=auto;html=1;fontSize=12;" edge="1" parent="1" source="pVDx9cTC9VevvbKP6h75-54" target="pVDx9cTC9VevvbKP6h75-58">
          <mxGeometry relative="1" as="geometry" />
        </mxCell>
        <mxCell id="pVDx9cTC9VevvbKP6h75-54" value="IF pop status is covered" style="rhombus;whiteSpace=wrap;html=1;rounded=0;" vertex="1" parent="1">
          <mxGeometry x="930" y="150" width="80" height="80" as="geometry" />
        </mxCell>
        <mxCell id="pVDx9cTC9VevvbKP6h75-56" value="set the pop status value" style="whiteSpace=wrap;html=1;rounded=0;" vertex="1" parent="1">
          <mxGeometry x="1040" y="150" width="120" height="60" as="geometry" />
        </mxCell>
        <mxCell id="pVDx9cTC9VevvbKP6h75-61" value="" style="edgeStyle=orthogonalEdgeStyle;rounded=0;orthogonalLoop=1;jettySize=auto;html=1;fontSize=12;" edge="1" parent="1" source="pVDx9cTC9VevvbKP6h75-58" target="pVDx9cTC9VevvbKP6h75-60">
          <mxGeometry relative="1" as="geometry" />
        </mxCell>
        <mxCell id="pVDx9cTC9VevvbKP6h75-58" value="ELSE IF pop ticket value &amp;lt;= 0" style="rhombus;whiteSpace=wrap;html=1;rounded=0;" vertex="1" parent="1">
          <mxGeometry x="930" y="290" width="80" height="80" as="geometry" />
        </mxCell>
        <mxCell id="pVDx9cTC9VevvbKP6h75-63" value="" style="edgeStyle=orthogonalEdgeStyle;rounded=0;orthogonalLoop=1;jettySize=auto;html=1;fontSize=12;" edge="1" parent="1" source="pVDx9cTC9VevvbKP6h75-60" target="pVDx9cTC9VevvbKP6h75-62">
          <mxGeometry relative="1" as="geometry" />
        </mxCell>
        <mxCell id="pVDx9cTC9VevvbKP6h75-60" value="set pop status as 3" style="whiteSpace=wrap;html=1;rounded=0;" vertex="1" parent="1">
          <mxGeometry x="910" y="410" width="120" height="60" as="geometry" />
        </mxCell>
        <mxCell id="pVDx9cTC9VevvbKP6h75-65" value="" style="edgeStyle=orthogonalEdgeStyle;rounded=0;orthogonalLoop=1;jettySize=auto;html=1;fontSize=12;" edge="1" parent="1" source="pVDx9cTC9VevvbKP6h75-62" target="pVDx9cTC9VevvbKP6h75-64">
          <mxGeometry relative="1" as="geometry" />
        </mxCell>
        <mxCell id="pVDx9cTC9VevvbKP6h75-62" value="construct the pop position array" style="whiteSpace=wrap;html=1;rounded=0;" vertex="1" parent="1">
          <mxGeometry x="910" y="510" width="120" height="60" as="geometry" />
        </mxCell>
        <mxCell id="pVDx9cTC9VevvbKP6h75-67" value="" style="edgeStyle=orthogonalEdgeStyle;rounded=0;orthogonalLoop=1;jettySize=auto;html=1;fontSize=12;entryX=0.5;entryY=0;entryDx=0;entryDy=0;" edge="1" parent="1" source="pVDx9cTC9VevvbKP6h75-64" target="pVDx9cTC9VevvbKP6h75-66">
          <mxGeometry relative="1" as="geometry" />
        </mxCell>
        <mxCell id="pVDx9cTC9VevvbKP6h75-64" value="IF pop is leader" style="rhombus;whiteSpace=wrap;html=1;rounded=0;" vertex="1" parent="1">
          <mxGeometry x="930" y="600" width="80" height="80" as="geometry" />
        </mxCell>
        <mxCell id="pVDx9cTC9VevvbKP6h75-69" value="" style="edgeStyle=orthogonalEdgeStyle;rounded=0;orthogonalLoop=1;jettySize=auto;html=1;fontSize=12;" edge="1" parent="1" source="pVDx9cTC9VevvbKP6h75-66" target="pVDx9cTC9VevvbKP6h75-68">
          <mxGeometry relative="1" as="geometry" />
        </mxCell>
        <mxCell id="pVDx9cTC9VevvbKP6h75-66" value="store the pop health" style="whiteSpace=wrap;html=1;rounded=0;" vertex="1" parent="1">
          <mxGeometry x="1060" y="340" width="120" height="60" as="geometry" />
        </mxCell>
        <mxCell id="pVDx9cTC9VevvbKP6h75-71" value="" style="edgeStyle=orthogonalEdgeStyle;rounded=0;orthogonalLoop=1;jettySize=auto;html=1;fontSize=12;" edge="1" parent="1" source="pVDx9cTC9VevvbKP6h75-68" target="pVDx9cTC9VevvbKP6h75-70">
          <mxGeometry relative="1" as="geometry" />
        </mxCell>
        <mxCell id="pVDx9cTC9VevvbKP6h75-68" value="IF reaction anim is not NA" style="rhombus;whiteSpace=wrap;html=1;rounded=0;" vertex="1" parent="1">
          <mxGeometry x="1080" y="440" width="80" height="80" as="geometry" />
        </mxCell>
        <mxCell id="pVDx9cTC9VevvbKP6h75-73" value="" style="edgeStyle=orthogonalEdgeStyle;rounded=0;orthogonalLoop=1;jettySize=auto;html=1;fontSize=12;" edge="1" parent="1" source="pVDx9cTC9VevvbKP6h75-70" target="pVDx9cTC9VevvbKP6h75-72">
          <mxGeometry relative="1" as="geometry" />
        </mxCell>
        <mxCell id="pVDx9cTC9VevvbKP6h75-70" value="reset into NA" style="whiteSpace=wrap;html=1;rounded=0;" vertex="1" parent="1">
          <mxGeometry x="1060" y="540" width="120" height="60" as="geometry" />
        </mxCell>
        <mxCell id="pVDx9cTC9VevvbKP6h75-75" value="" style="edgeStyle=orthogonalEdgeStyle;rounded=0;orthogonalLoop=1;jettySize=auto;html=1;fontSize=12;" edge="1" parent="1" source="pVDx9cTC9VevvbKP6h75-72" target="pVDx9cTC9VevvbKP6h75-74">
          <mxGeometry relative="1" as="geometry" />
        </mxCell>
        <mxCell id="pVDx9cTC9VevvbKP6h75-72" value="return position" style="whiteSpace=wrap;html=1;rounded=0;" vertex="1" parent="1">
          <mxGeometry x="1060" y="640" width="120" height="60" as="geometry" />
        </mxCell>
        <mxCell id="pVDx9cTC9VevvbKP6h75-74" value="end" style="ellipse;whiteSpace=wrap;html=1;rounded=0;" vertex="1" parent="1">
          <mxGeometry x="1075" y="730" width="90" height="30" as="geometry" />
        </mxCell>
      </root>
    </mxGraphModel>
  </diagram>
</mxfile>
